<svg width="48" height="61" viewBox="0 0 48 61" fill="none" xmlns="http://www.w3.org/2000/svg">
<path d="M40.5 30.5C40.5 38.8366 38.2279 46.3615 34.5807 51.7878C30.9314 57.2173 25.9436 60.5 20.5 60.5C15.0564 60.5 10.0686 57.2173 6.41929 51.7878C2.77206 46.3615 0.5 38.8366 0.5 30.5C0.5 22.1634 2.77206 14.6385 6.41929 9.21216C10.0686 3.78267 15.0564 0.5 20.5 0.5C25.9436 0.5 30.9314 3.78267 34.5807 9.21216C38.2279 14.6385 40.5 22.1634 40.5 30.5Z" fill="#F0B90B" stroke="white"/>
<path d="M47.5 30.5C47.5 38.8366 45.2279 46.3615 41.5807 51.7878C37.9314 57.2173 32.9436 60.5 27.5 60.5C22.0564 60.5 17.0686 57.2173 13.4193 51.7878C9.77206 46.3615 7.5 38.8366 7.5 30.5C7.5 22.1634 9.77206 14.6385 13.4193 9.21216C17.0686 3.78267 22.0564 0.5 27.5 0.5C32.9436 0.5 37.9314 3.78267 41.5807 9.21216C45.2279 14.6385 47.5 22.1634 47.5 30.5Z" fill="#F0B90B" stroke="white"/>
</svg>
