<svg width="287" height="43" viewBox="0 0 287 43" fill="none" xmlns="http://www.w3.org/2000/svg">
<mask id="path-1-outside-1" maskUnits="userSpaceOnUse" x="0" y="0" width="287" height="43" fill="black">
<rect fill="white" width="287" height="43"/>
<path d="M34 17.2V8.8H11.6V11.6H6V34H11.6V36.8H34V28.4H20V17.2H34Z"/>
<path d="M63.1922 8.8H43.5922V11.6H37.9922V34H43.5922V36.8H63.1922V34H68.7922V11.6H63.1922V8.8ZM57.5922 28.4H49.1922V17.2H57.5922V28.4Z"/>
<path d="M89.5969 8.8V20H86.7969V14.4H83.9969V8.8H72.7969V36.8H83.9969V25.6H86.7969V31.2H89.5969V36.8H100.797V8.8H89.5969Z"/>
<path d="M129.989 8.8H110.389V11.6H104.789V34H110.389V36.8H129.989V34H135.589V22.8H122.709V25.6H125.509V28.4H117.109V17.2H125.509V20H135.589V11.6H129.989V8.8Z"/>
<path d="M170.394 23.24V11.6H164.794V8.8H139.594V36.8H150.794V28.4H156.394V36.8H170.394V28.4H164.794V23.24H170.394ZM159.194 21.4H150.794V15.8H159.194V21.4Z"/>
<path d="M199.598 8.8H179.998V11.6H174.398V36.8H185.598V31.2H193.998V36.8H205.198V11.6H199.598V8.8ZM193.998 25.6H185.598V17.08H193.998V25.6Z"/>
<path d="M209.203 8.8V17.2H214.803V36.8H226.003V17.2H231.603V8.8H209.203Z"/>
<path d="M266.409 17.2V11.6H263.609V8.8H238.409V11.6H235.609V22.8H238.409V25.6H249.609V31.2H244.009V28.4H235.609V34H238.409V36.8H263.609V34H266.409V22.96H260.929V20H249.609V14.4H255.209V17.2H266.409Z"/>
<path d="M280.214 27H270.414V36.8H280.214V27ZM280.214 6H270.414V24.2H280.214V6Z"/>
</mask>
<path d="M34 17.2V8.8H11.6V11.6H6V34H11.6V36.8H34V28.4H20V17.2H34Z" fill="url(#paint0_linear)"/>
<path d="M63.1922 8.8H43.5922V11.6H37.9922V34H43.5922V36.8H63.1922V34H68.7922V11.6H63.1922V8.8ZM57.5922 28.4H49.1922V17.2H57.5922V28.4Z" fill="url(#paint1_linear)"/>
<path d="M89.5969 8.8V20H86.7969V14.4H83.9969V8.8H72.7969V36.8H83.9969V25.6H86.7969V31.2H89.5969V36.8H100.797V8.8H89.5969Z" fill="url(#paint2_linear)"/>
<path d="M129.989 8.8H110.389V11.6H104.789V34H110.389V36.8H129.989V34H135.589V22.8H122.709V25.6H125.509V28.4H117.109V17.2H125.509V20H135.589V11.6H129.989V8.8Z" fill="url(#paint3_linear)"/>
<path d="M170.394 23.24V11.6H164.794V8.8H139.594V36.8H150.794V28.4H156.394V36.8H170.394V28.4H164.794V23.24H170.394ZM159.194 21.4H150.794V15.8H159.194V21.4Z" fill="url(#paint4_linear)"/>
<path d="M199.598 8.8H179.998V11.6H174.398V36.8H185.598V31.2H193.998V36.8H205.198V11.6H199.598V8.8ZM193.998 25.6H185.598V17.08H193.998V25.6Z" fill="url(#paint5_linear)"/>
<path d="M209.203 8.8V17.2H214.803V36.8H226.003V17.2H231.603V8.8H209.203Z" fill="url(#paint6_linear)"/>
<path d="M266.409 17.2V11.6H263.609V8.8H238.409V11.6H235.609V22.8H238.409V25.6H249.609V31.2H244.009V28.4H235.609V34H238.409V36.8H263.609V34H266.409V22.96H260.929V20H249.609V14.4H255.209V17.2H266.409Z" fill="url(#paint7_linear)"/>
<path d="M280.214 27H270.414V36.8H280.214V27ZM280.214 6H270.414V24.2H280.214V6Z" fill="url(#paint8_linear)"/>
<path d="M34 17.2V8.8H11.6V11.6H6V34H11.6V36.8H34V28.4H20V17.2H34Z" stroke="white" stroke-width="12" mask="url(#path-1-outside-1)"/>
<path d="M63.1922 8.8H43.5922V11.6H37.9922V34H43.5922V36.8H63.1922V34H68.7922V11.6H63.1922V8.8ZM57.5922 28.4H49.1922V17.2H57.5922V28.4Z" stroke="white" stroke-width="12" mask="url(#path-1-outside-1)"/>
<path d="M89.5969 8.8V20H86.7969V14.4H83.9969V8.8H72.7969V36.8H83.9969V25.6H86.7969V31.2H89.5969V36.8H100.797V8.8H89.5969Z" stroke="white" stroke-width="12" mask="url(#path-1-outside-1)"/>
<path d="M129.989 8.8H110.389V11.6H104.789V34H110.389V36.8H129.989V34H135.589V22.8H122.709V25.6H125.509V28.4H117.109V17.2H125.509V20H135.589V11.6H129.989V8.8Z" stroke="white" stroke-width="12" mask="url(#path-1-outside-1)"/>
<path d="M170.394 23.24V11.6H164.794V8.8H139.594V36.8H150.794V28.4H156.394V36.8H170.394V28.4H164.794V23.24H170.394ZM159.194 21.4H150.794V15.8H159.194V21.4Z" stroke="white" stroke-width="12" mask="url(#path-1-outside-1)"/>
<path d="M199.598 8.8H179.998V11.6H174.398V36.8H185.598V31.2H193.998V36.8H205.198V11.6H199.598V8.8ZM193.998 25.6H185.598V17.08H193.998V25.6Z" stroke="white" stroke-width="12" mask="url(#path-1-outside-1)"/>
<path d="M209.203 8.8V17.2H214.803V36.8H226.003V17.2H231.603V8.8H209.203Z" stroke="white" stroke-width="12" mask="url(#path-1-outside-1)"/>
<path d="M266.409 17.2V11.6H263.609V8.8H238.409V11.6H235.609V22.8H238.409V25.6H249.609V31.2H244.009V28.4H235.609V34H238.409V36.8H263.609V34H266.409V22.96H260.929V20H249.609V14.4H255.209V17.2H266.409Z" stroke="white" stroke-width="12" mask="url(#path-1-outside-1)"/>
<path d="M280.214 27H270.414V36.8H280.214V27ZM280.214 6H270.414V24.2H280.214V6Z" stroke="white" stroke-width="12" mask="url(#path-1-outside-1)"/>
<path d="M34 17.2V8.8H11.6V11.6H6V34H11.6V36.8H34V28.4H20V17.2H34Z" fill="url(#paint9_linear)"/>
<path d="M63.1922 8.8H43.5922V11.6H37.9922V34H43.5922V36.8H63.1922V34H68.7922V11.6H63.1922V8.8ZM57.5922 28.4H49.1922V17.2H57.5922V28.4Z" fill="url(#paint10_linear)"/>
<path d="M89.5969 8.8V20H86.7969V14.4H83.9969V8.8H72.7969V36.8H83.9969V25.6H86.7969V31.2H89.5969V36.8H100.797V8.8H89.5969Z" fill="url(#paint11_linear)"/>
<path d="M129.989 8.8H110.389V11.6H104.789V34H110.389V36.8H129.989V34H135.589V22.8H122.709V25.6H125.509V28.4H117.109V17.2H125.509V20H135.589V11.6H129.989V8.8Z" fill="url(#paint12_linear)"/>
<path d="M170.394 23.24V11.6H164.794V8.8H139.594V36.8H150.794V28.4H156.394V36.8H170.394V28.4H164.794V23.24H170.394ZM159.194 21.4H150.794V15.8H159.194V21.4Z" fill="url(#paint13_linear)"/>
<path d="M199.598 8.8H179.998V11.6H174.398V36.8H185.598V31.2H193.998V36.8H205.198V11.6H199.598V8.8ZM193.998 25.6H185.598V17.08H193.998V25.6Z" fill="url(#paint14_linear)"/>
<path d="M209.203 8.8V17.2H214.803V36.8H226.003V17.2H231.603V8.8H209.203Z" fill="url(#paint15_linear)"/>
<path d="M266.409 17.2V11.6H263.609V8.8H238.409V11.6H235.609V22.8H238.409V25.6H249.609V31.2H244.009V28.4H235.609V34H238.409V36.8H263.609V34H266.409V22.96H260.929V20H249.609V14.4H255.209V17.2H266.409Z" fill="url(#paint16_linear)"/>
<path d="M280.214 27H270.414V36.8H280.214V27ZM280.214 6H270.414V24.2H280.214V6Z" fill="url(#paint17_linear)"/>
<path fill-rule="evenodd" clip-rule="evenodd" d="M34.9922 20.2H23V25.4H34.9922V20.2ZM37 8.6V5.8H8.6V8.6H3V37H8.6V39.8H37V37H40.5922V39.8H66.1922V37H69.7969V39.8H103.797V37H107.389V39.8H132.989V37H136.594V39.8H188.598V34.2H190.998V39.8H208.198V20.2H211.803V39.8H229.003V20.2H232.609V37H235.409V39.8H266.609V37H267.414V39.8H283.214V3H267.414V8.6H266.609V5.8H235.409V8.6H234.603V5.8H206.203V8.6H202.598V5.8H176.998V8.6H167.794V5.8H136.594V8.6H132.989V5.8H107.389V8.6H103.797V5.8H69.7969V8.6H66.1922V5.8H40.5922V8.6H37ZM89.5969 20H86.7969V14.4H83.9969V8.8H72.7969V36.8H83.9969V25.6H86.7969V31.2H89.5969V36.8H100.797V8.8H89.5969V20ZM266.409 17.2V11.6H263.609V8.8H238.409V11.6H235.609V22.8H238.409V25.6H249.609V31.2H244.009V28.4H235.609V34H238.409V36.8H263.609V34H266.409V22.96H260.929V20H249.609V14.4H255.209V17.2H266.409ZM270.414 24.2H280.214V6H270.414V24.2ZM6 11.6H11.6V8.8H34V17.2H20V28.4H34V36.8H11.6V34H6V11.6ZM37.9922 11.6H43.5922V8.8H63.1922V11.6H68.7922V34H63.1922V36.8H43.5922V34H37.9922V11.6ZM104.789 11.6H110.389V8.8H129.989V11.6H135.589V20H125.509V17.2H117.109V28.4H125.509V25.6H122.709V22.8H135.589V34H129.989V36.8H110.389V34H104.789V11.6ZM164.794 8.8V11.6H170.394V23.24H164.794V28.4H170.394V36.8H156.394V28.4H150.794V36.8H139.594V8.8H164.794ZM174.398 11.6H179.998V8.8H199.598V11.6H205.198V36.8H193.998V31.2H185.598V36.8H174.398V11.6ZM209.203 8.8H231.603V17.2H226.003V36.8H214.803V17.2H209.203V8.8ZM52.1922 25.4H54.5922V20.2H52.1922V25.4ZM188.598 22.6H190.998V20.08H188.598V22.6ZM270.414 27H280.214V36.8H270.414V27ZM49.1922 28.4V17.2H57.5922V28.4H49.1922ZM159.194 21.4V15.8H150.794V21.4H159.194ZM185.598 25.6V17.08H193.998V25.6H185.598Z" fill="#1D1A28"/>
<defs>
<linearGradient id="paint0_linear" x1="235.165" y1="9.08" x2="229.845" y2="56.4425" gradientUnits="userSpaceOnUse">
<stop stop-color="#00D7E7"/>
<stop offset="1" stop-color="#FBEC5B"/>
</linearGradient>
<linearGradient id="paint1_linear" x1="235.165" y1="9.08" x2="229.845" y2="56.4425" gradientUnits="userSpaceOnUse">
<stop stop-color="#00D7E7"/>
<stop offset="1" stop-color="#FBEC5B"/>
</linearGradient>
<linearGradient id="paint2_linear" x1="235.165" y1="9.08" x2="229.845" y2="56.4425" gradientUnits="userSpaceOnUse">
<stop stop-color="#00D7E7"/>
<stop offset="1" stop-color="#FBEC5B"/>
</linearGradient>
<linearGradient id="paint3_linear" x1="235.165" y1="9.08" x2="229.845" y2="56.4425" gradientUnits="userSpaceOnUse">
<stop stop-color="#00D7E7"/>
<stop offset="1" stop-color="#FBEC5B"/>
</linearGradient>
<linearGradient id="paint4_linear" x1="235.165" y1="9.08" x2="229.845" y2="56.4425" gradientUnits="userSpaceOnUse">
<stop stop-color="#00D7E7"/>
<stop offset="1" stop-color="#FBEC5B"/>
</linearGradient>
<linearGradient id="paint5_linear" x1="235.165" y1="9.08" x2="229.845" y2="56.4425" gradientUnits="userSpaceOnUse">
<stop stop-color="#00D7E7"/>
<stop offset="1" stop-color="#FBEC5B"/>
</linearGradient>
<linearGradient id="paint6_linear" x1="235.165" y1="9.08" x2="229.845" y2="56.4425" gradientUnits="userSpaceOnUse">
<stop stop-color="#00D7E7"/>
<stop offset="1" stop-color="#FBEC5B"/>
</linearGradient>
<linearGradient id="paint7_linear" x1="235.165" y1="9.08" x2="229.845" y2="56.4425" gradientUnits="userSpaceOnUse">
<stop stop-color="#00D7E7"/>
<stop offset="1" stop-color="#FBEC5B"/>
</linearGradient>
<linearGradient id="paint8_linear" x1="235.165" y1="9.08" x2="229.845" y2="56.4425" gradientUnits="userSpaceOnUse">
<stop stop-color="#00D7E7"/>
<stop offset="1" stop-color="#FBEC5B"/>
</linearGradient>
<linearGradient id="paint9_linear" x1="235.165" y1="9.08" x2="229.845" y2="56.4425" gradientUnits="userSpaceOnUse">
<stop stop-color="#00D7E7"/>
<stop offset="1" stop-color="#FBEC5B"/>
</linearGradient>
<linearGradient id="paint10_linear" x1="235.165" y1="9.08" x2="229.845" y2="56.4425" gradientUnits="userSpaceOnUse">
<stop stop-color="#00D7E7"/>
<stop offset="1" stop-color="#FBEC5B"/>
</linearGradient>
<linearGradient id="paint11_linear" x1="235.165" y1="9.08" x2="229.845" y2="56.4425" gradientUnits="userSpaceOnUse">
<stop stop-color="#00D7E7"/>
<stop offset="1" stop-color="#FBEC5B"/>
</linearGradient>
<linearGradient id="paint12_linear" x1="235.165" y1="9.08" x2="229.845" y2="56.4425" gradientUnits="userSpaceOnUse">
<stop stop-color="#00D7E7"/>
<stop offset="1" stop-color="#FBEC5B"/>
</linearGradient>
<linearGradient id="paint13_linear" x1="235.165" y1="9.08" x2="229.845" y2="56.4425" gradientUnits="userSpaceOnUse">
<stop stop-color="#00D7E7"/>
<stop offset="1" stop-color="#FBEC5B"/>
</linearGradient>
<linearGradient id="paint14_linear" x1="235.165" y1="9.08" x2="229.845" y2="56.4425" gradientUnits="userSpaceOnUse">
<stop stop-color="#00D7E7"/>
<stop offset="1" stop-color="#FBEC5B"/>
</linearGradient>
<linearGradient id="paint15_linear" x1="235.165" y1="9.08" x2="229.845" y2="56.4425" gradientUnits="userSpaceOnUse">
<stop stop-color="#00D7E7"/>
<stop offset="1" stop-color="#FBEC5B"/>
</linearGradient>
<linearGradient id="paint16_linear" x1="235.165" y1="9.08" x2="229.845" y2="56.4425" gradientUnits="userSpaceOnUse">
<stop stop-color="#00D7E7"/>
<stop offset="1" stop-color="#FBEC5B"/>
</linearGradient>
<linearGradient id="paint17_linear" x1="235.165" y1="9.08" x2="229.845" y2="56.4425" gradientUnits="userSpaceOnUse">
<stop stop-color="#00D7E7"/>
<stop offset="1" stop-color="#FBEC5B"/>
</linearGradient>
</defs>
</svg>
