<svg width="56" height="56" viewBox="0 0 56 56" fill="none" xmlns="http://www.w3.org/2000/svg">
<rect width="56" height="56" fill="#1D1A28"/>
<rect width="4" height="4" fill="#2B2735"/>
<rect y="14" width="4" height="4" fill="#2B2735"/>
<rect y="28" width="4" height="4" fill="#2B2735"/>
<rect y="42" width="4" height="4" fill="#2B2735"/>
<rect x="14" width="4" height="4" fill="#2B2735"/>
<rect x="14" y="14" width="4" height="4" fill="#2B2735"/>
<rect x="14" y="28" width="4" height="4" fill="#2B2735"/>
<rect x="14" y="42" width="4" height="4" fill="#2B2735"/>
<rect x="28" width="4" height="4" fill="#2B2735"/>
<rect x="28" y="14" width="4" height="4" fill="#2B2735"/>
<rect x="28" y="28" width="4" height="4" fill="#2B2735"/>
<rect x="28" y="42" width="4" height="4" fill="#2B2735"/>
<rect x="42" width="4" height="4" fill="#2B2735"/>
<rect x="42" y="14" width="4" height="4" fill="#2B2735"/>
<rect x="42" y="28" width="4" height="4" fill="#2B2735"/>
<rect x="42" y="42" width="4" height="4" fill="#2B2735"/>
</svg>
