<svg width="32" height="32" viewBox="0 0 32 32" fill="none" xmlns="http://www.w3.org/2000/svg">
<path d="M12.5411 24.8335C12.532 24.9716 12.5804 25.1072 12.675 25.2082C12.7695 25.3092 12.9017 25.3665 13.04 25.3665C13.4002 25.3665 13.6894 25.2805 13.94 25.1307C14.1639 24.9968 14.342 24.8184 14.4842 24.6762C14.4887 24.6717 14.4931 24.6672 14.4976 24.6628L16.8438 22.3873L22.0228 26.2153C22.0405 26.2283 22.059 26.2402 22.0782 26.2508C22.644 26.5635 23.2599 26.7105 23.8116 26.4602C24.3647 26.2093 24.6685 25.6432 24.8093 24.9697C24.8093 24.9694 24.8094 24.9691 24.8095 24.9687L28.434 7.89883C28.6426 7.05557 28.5136 6.30605 28.0347 5.83748C27.5495 5.36276 26.846 5.31427 26.2211 5.59145L4.94008 13.8L4.94006 13.8L4.93286 13.8029C4.53671 13.9628 4.20963 14.1499 3.96838 14.364C3.73072 14.5749 3.53697 14.8486 3.50414 15.1787C3.4693 15.5289 3.62617 15.826 3.85679 16.0386C4.07653 16.2411 4.37544 16.383 4.70916 16.4787L10.1689 18.2098C10.3094 18.2544 10.4625 18.2347 10.5871 18.1559L21.5245 11.245L13.0787 18.8551C12.982 18.9422 12.923 19.0636 12.9144 19.1935L12.5411 24.8335Z" stroke="white" stroke-linecap="round" stroke-linejoin="round"/>
</svg>
