<svg width="32" height="32" viewBox="0 0 32 32" fill="none" xmlns="http://www.w3.org/2000/svg">
<path d="M30.3627 8.27727C30.4866 8.09149 30.4722 7.84611 30.3276 7.67601C30.1829 7.50592 29.943 7.45234 29.7398 7.54474C29.3324 7.72989 28.9113 7.88887 28.4792 8.02153C28.997 7.40685 29.3995 6.68832 29.65 5.8976C29.7128 5.69928 29.6463 5.48278 29.4829 5.35397C29.3196 5.22515 29.0935 5.21095 28.9153 5.31829C27.9363 5.90806 26.8557 6.3355 25.7129 6.5986C24.5798 5.47644 23.047 4.83325 21.3333 4.83325C17.9223 4.83325 15.14 7.61863 15.14 11.0533C15.14 11.3126 15.1561 11.5677 15.1861 11.8165C10.841 11.4242 6.99057 9.26582 4.38766 6.07078C4.28423 5.94382 4.12518 5.87556 3.9619 5.88804C3.79862 5.90052 3.6518 5.99217 3.56887 6.13337C3.03091 7.04935 2.72668 8.12331 2.72668 9.25325C2.72668 10.7538 3.25259 12.1388 4.14135 13.2103C3.88685 13.1202 3.64034 13.0119 3.40306 12.8891L3.17334 13.3333H2.96624H2.67334V13.3333V13.3333V13.3333V13.3333V13.3333V13.3333V13.3333V13.3333V13.3333V13.3333V13.3333V13.3334V13.3334V13.3334V13.3334V13.3334V13.3334V13.3334V13.3334V13.3334V13.3335V13.3335V13.3335V13.3335V13.3335V13.3335V13.3335V13.3335V13.3335V13.3335V13.3335V13.3335V13.3336V13.3336V13.3336V13.3336V13.3336V13.3336V13.3336V13.3336V13.3336V13.3336V13.3337V13.3337V13.3337V13.3337V13.3337V13.3337V13.3337V13.3337V13.3338V13.3338V13.3338V13.3338V13.3338V13.3338V13.3338V13.3338V13.3339V13.3339V13.3339V13.3339V13.3339V13.3339V13.334V13.334V13.334V13.334V13.334V13.334V13.3341V13.3341V13.3341V13.3341V13.3341V13.3341V13.3342V13.3342V13.3342V13.3342V13.3342V13.3343V13.3343V13.3343V13.3343V13.3343V13.3344V13.3344V13.3344V13.3344V13.3344V13.3345V13.3345V13.3345V13.3345V13.3346V13.3346V13.3346V13.3346V13.3347V13.3347V13.3347V13.3347V13.3348V13.3348V13.3348V13.3348V13.3349V13.3349V13.3349V13.335V13.335V13.335V13.335V13.3351V13.3351V13.3351V13.3352V13.3352V13.3352V13.3353V13.3353V13.3353V13.3354V13.3354V13.3354V13.3355V13.3355V13.3355V13.3356V13.3356V13.3356V13.3357V13.3357V13.3357V13.3358V13.3358V13.3359V13.3359V13.3359V13.336V13.336V13.3361V13.3361V13.3361V13.3362V13.3362V13.3363V13.3363V13.3363V13.3364V13.3364V13.3365V13.3365V13.3366V13.3366V13.3366V13.3367V13.3367V13.3368V13.3368V13.3369V13.3369V13.337V13.337V13.3371V13.3371V13.3372V13.3372V13.3373V13.3373V13.3374V13.3374V13.3375V13.3375V13.3376V13.3376V13.3377V13.3377V13.3378V13.3379V13.3379V13.338V13.338V13.3381V13.3381V13.3382V13.3383V13.3383V13.3384V13.3384V13.3385V13.3385V13.3386V13.3387V13.3387V13.3388V13.3389V13.3389V13.339V13.3391V13.3391V13.3392V13.3392V13.3393V13.3394V13.3394V13.3395V13.3396V13.3397V13.3397V13.3398V13.3399V13.3399V13.34V13.3401V13.3401V13.3402V13.3403V13.3404V13.3404V13.3405V13.3406V13.3407V13.3407V13.3408V13.3409V13.341V13.3411V13.3411V13.3412V13.3413V13.3414V13.3415V13.3415V13.3416V13.3417V13.3418V13.3419V13.342V13.342V13.3421V13.3422V13.3423V13.3424V13.3425V13.3426V13.3427V13.3427V13.3428V13.3429V13.343V13.3431V13.3432V13.3433V13.3434V13.3435V13.3436V13.3437V13.3438V13.3439V13.344V13.3441V13.3442V13.3443V13.3444V13.3445V13.3446V13.3447V13.3448V13.3449V13.345V13.3451V13.3452V13.3453V13.3454V13.3455V13.3456V13.3457V13.3458V13.3459V13.346V13.3461V13.3462V13.3464V13.3465V13.3466V13.3467V13.3468V13.3469V13.347V13.3472V13.3473V13.3474V13.3475V13.3476V13.3477V13.3479V13.348V13.3481V13.3482V13.3483V13.3485V13.3486V13.3487V13.3488V13.349V13.3491V13.3492V13.3493V13.3495V13.3496V13.3497V13.3499V13.35V13.3501V13.3503V13.3504V13.3505V13.3507V13.3508V13.3509V13.3511V13.3512V13.3513V13.3515V13.3516V13.3518V13.3519V13.352V13.3522V13.3523V13.3525V13.3526V13.3528V13.3529V13.353V13.3532V13.3533V13.3535V13.3536V13.3538V13.3539V13.3541V13.3542V13.3544V13.3546V13.3547V13.3549V13.355V13.3552V13.3553V13.3555V13.3556V13.3558V13.356V13.3561V13.3563V13.3565V13.3566V13.3568V13.3569V13.3571V13.3573V13.3574V13.3576V13.3578V13.358V13.3581V13.3583V13.3585V13.3586V13.3588V13.359V13.3592V13.3593V13.3595V13.3597V13.3599V13.36V13.3602V13.3604V13.3606V13.3608V13.361V13.3611V13.3613V13.3615V13.3617V13.3619V13.3621V13.3623V13.3624V13.3626V13.3628V13.363V13.3632V13.3634V13.3636V13.3638V13.364V13.3642V13.3644V13.3646V13.3648V13.365V13.3652V13.3654V13.3656V13.3658V13.366V13.3662V13.3664V13.3666V13.3668V13.367V13.3673V13.3675V13.3677V13.3679V13.3681V13.3683V13.3685V13.3687V13.369V13.3692V13.3694V13.3696V13.3698V13.3701V13.3703V13.3705V13.3707V13.371V13.3712V13.3714V13.3716V13.3719V13.3721V13.3723V13.3726V13.3728V13.373V13.3733C2.67334 15.5857 3.82828 17.533 5.5669 18.6366C5.47119 18.6231 5.37582 18.6071 5.2811 18.5889C5.10782 18.5556 4.9298 18.6161 4.81268 18.7481C4.69556 18.8801 4.65669 19.064 4.7104 19.2321C5.36171 21.2705 7.04775 22.8797 9.17781 23.3866C7.50937 24.4186 5.53651 25.0066 3.41334 25.0066C2.97967 25.0066 2.54584 24.9811 2.11177 24.93C1.88054 24.9028 1.66114 25.0388 1.58263 25.258C1.50412 25.4772 1.58728 25.7215 1.78319 25.8473C4.39429 27.5239 7.50091 28.4999 10.8267 28.4999C21.6666 28.4999 27.6067 19.4953 27.6067 11.7199V11.7144C27.6067 11.5514 27.6067 11.3879 27.6028 11.2198C28.6815 10.4091 29.6086 9.40842 30.3627 8.27727Z" stroke="white" stroke-linecap="round" stroke-linejoin="round"/>
</svg>
