<svg width="55" height="55" viewBox="0 0 55 55" fill="none" xmlns="http://www.w3.org/2000/svg">
<path d="M55 27.5C55 12.3122 42.6878 0 27.5 0C12.3122 0 0 12.3122 0 27.5C0 42.6878 12.3122 55 27.5 55C42.6878 55 55 42.6878 55 27.5Z" fill="white"/>
<path d="M18.1769 19.8228C23.3259 14.7814 31.6742 14.7814 36.8232 19.8228L37.4429 20.4295C37.7004 20.6816 37.7004 21.0902 37.4429 21.3423L35.3231 23.4178C35.1944 23.5439 34.9857 23.5439 34.8569 23.4178L34.0042 22.5829C30.412 19.0659 24.5881 19.0659 20.996 22.5829L20.0827 23.477C19.954 23.6031 19.7453 23.6031 19.6166 23.477L17.4967 21.4015C17.2393 21.1495 17.2393 20.7408 17.4967 20.4887L18.1769 19.8228ZM41.2073 24.1152L43.094 25.9624C43.3514 26.2144 43.3514 26.6231 43.094 26.8752L34.5868 35.2046C34.3294 35.4566 33.912 35.4566 33.6545 35.2046C33.6545 35.2046 33.6545 35.2046 33.6545 35.2046L27.6166 29.293C27.5523 29.2299 27.4479 29.2299 27.3836 29.293C27.3836 29.293 27.3836 29.293 27.3836 29.293L21.3458 35.2046C21.0884 35.4566 20.671 35.4566 20.4135 35.2046C20.4135 35.2046 20.4135 35.2046 20.4135 35.2046L11.9061 26.8751C11.6486 26.623 11.6486 26.2143 11.9061 25.9623L13.7928 24.1151C14.0502 23.863 14.4676 23.863 14.7251 24.1151L20.7631 30.0267C20.8274 30.0897 20.9318 30.0897 20.9961 30.0267C20.9961 30.0267 20.9961 30.0267 20.9961 30.0267L27.0338 24.1151C27.2912 23.863 27.7087 23.863 27.9661 24.115C27.9661 24.115 27.9661 24.115 27.9661 24.115L34.0041 30.0267C34.0684 30.0897 34.1728 30.0897 34.2371 30.0267L40.275 24.1152C40.5325 23.8631 40.9499 23.8631 41.2073 24.1152Z" fill="#3B99FC"/>
</svg>
