<svg width="32" height="32" viewBox="0 0 32 32" fill="none" xmlns="http://www.w3.org/2000/svg">
<path d="M30.0541 8.55992C29.8957 7.92713 29.5732 7.34735 29.119 6.87913C28.6648 6.41091 28.0951 6.07083 27.4674 5.89325C25.1741 5.33325 16.0008 5.33325 16.0008 5.33325C16.0008 5.33325 6.82744 5.33325 4.53411 5.94659C3.90644 6.12416 3.33674 6.46424 2.88257 6.93246C2.42839 7.40068 2.10582 7.98046 1.94744 8.61325C1.52773 10.9407 1.32242 13.3017 1.33411 15.6666C1.31914 18.0493 1.52446 20.4283 1.94744 22.7733C2.12205 23.3864 2.45185 23.9441 2.90496 24.3926C3.35808 24.841 3.9192 25.165 4.53411 25.3333C6.82744 25.9466 16.0008 25.9466 16.0008 25.9466C16.0008 25.9466 25.1741 25.9466 27.4674 25.3333C28.0951 25.1557 28.6648 24.8156 29.119 24.3474C29.5732 23.8792 29.8957 23.2994 30.0541 22.6666C30.4706 20.3567 30.6759 18.0137 30.6674 15.6666C30.6824 13.2839 30.4771 10.9048 30.0541 8.55992V8.55992Z" stroke="white" stroke-linecap="round" stroke-linejoin="round"/>
<path d="M13.0008 20.0266L20.6675 15.6666L13.0008 11.3066V20.0266Z" stroke="white" stroke-linecap="round" stroke-linejoin="round"/>
</svg>
