<svg width="191" height="43" viewBox="0 0 191 43" fill="none" xmlns="http://www.w3.org/2000/svg">
<path d="M6 5.8C4.34315 5.8 3 7.14315 3 8.8V36.8C3 38.4569 4.34315 39.8 6 39.8H31.2C31.9729 39.8 32.6775 39.5077 33.2094 39.0277C33.7412 39.5077 34.4459 39.8 35.2188 39.8H46.4188C47.6951 39.8 48.7854 39.0029 49.2188 37.8793C49.6521 39.0029 50.7424 39.8 52.0187 39.8H66.0188C66.7882 39.8 67.4901 39.5103 68.0211 39.034C68.5521 39.5103 69.254 39.8 70.0234 39.8H81.2234C82.4998 39.8 83.5901 39.0029 84.0234 37.8793C84.4568 39.0029 85.547 39.8 86.8234 39.8H100.823C102.471 39.8 103.809 38.4717 103.823 36.8276C104.137 36.9392 104.476 37 104.828 37H107.435C107.538 38.5636 108.838 39.8 110.428 39.8H130.028C131.618 39.8 132.919 38.5636 133.022 37H135.628C135.981 37 136.319 36.9392 136.633 36.8276C136.648 38.4717 137.985 39.8 139.633 39.8H150.833C152.109 39.8 153.199 39.0029 153.633 37.8793C154.066 39.0029 155.156 39.8 156.433 39.8H170.433C171.202 39.8 171.904 39.5103 172.435 39.034C172.966 39.5103 173.668 39.8 174.438 39.8H184.238C185.894 39.8 187.238 38.4569 187.238 36.8V27C187.238 26.4944 187.112 26.0179 186.891 25.6C187.112 25.1821 187.238 24.7056 187.238 24.2V6C187.238 4.34315 185.894 3 184.238 3H174.438C172.781 3 171.438 4.34315 171.438 6V8.77236C171.123 8.66076 170.785 8.6 170.433 8.6H167.826C167.723 7.03639 166.422 5.8 164.833 5.8H139.633C137.985 5.8 136.648 7.12826 136.633 8.77241C136.319 8.66077 135.981 8.6 135.628 8.6H133.022C132.919 7.03639 131.618 5.8 130.028 5.8H110.428C108.838 5.8 107.538 7.03639 107.435 8.6H104.828C104.059 8.6 103.357 8.8897 102.826 9.36599C102.295 8.8897 101.593 8.6 100.823 8.6H98.2169C98.114 7.03639 96.8131 5.8 95.2234 5.8H70.0234C68.3758 5.8 67.0384 7.12826 67.0236 8.77241C66.7094 8.66077 66.3712 8.6 66.0188 8.6H63.4122C63.3093 7.03639 62.0084 5.8 60.4188 5.8H35.2188C34.4459 5.8 33.7412 6.09227 33.2094 6.57232C32.6775 6.09227 31.9729 5.8 31.2 5.8H6ZM32.2188 17.2226V28.3774C31.9007 28.2626 31.5577 28.2 31.2 28.2H27.0977C27.9957 27.6816 28.6 26.7114 28.6 25.6V20C28.6 18.8886 27.9957 17.9184 27.0977 17.4H31.2C31.5577 17.4 31.9007 17.3374 32.2188 17.2226ZM121.428 25.4H119.028V20.2H121.428V25.4Z" fill="#FF483E" stroke="white" stroke-width="6" stroke-linecap="round" stroke-linejoin="round"/>
<path d="M6 7.3C5.17157 7.3 4.5 7.97157 4.5 8.8V36.8C4.5 37.6284 5.17157 38.3 6 38.3H31.2C32.0284 38.3 32.7 37.6284 32.7 36.8V31.2C32.7 30.3716 32.0284 29.7 31.2 29.7H21.5V27.1H25.6C26.4284 27.1 27.1 26.4284 27.1 25.6V20C27.1 19.1716 26.4284 18.5 25.6 18.5H21.5V15.9H31.2C32.0284 15.9 32.7 15.2284 32.7 14.4V8.8C32.7 7.97157 32.0284 7.3 31.2 7.3H6ZM66.0188 24.74C66.8472 24.74 67.5188 24.0684 67.5188 23.24V11.6C67.5188 10.7716 66.8472 10.1 66.0188 10.1H61.9188V8.8C61.9188 7.97157 61.2472 7.3 60.4188 7.3H35.2188C34.3903 7.3 33.7188 7.97157 33.7188 8.8V36.8C33.7188 37.6284 34.3903 38.3 35.2188 38.3H46.4188C47.2472 38.3 47.9188 37.6284 47.9188 36.8V29.9H50.5187V36.8C50.5187 37.6284 51.1903 38.3 52.0187 38.3H66.0188C66.8472 38.3 67.5188 37.6284 67.5188 36.8V28.4C67.5188 27.5716 66.8472 26.9 66.0188 26.9H61.9188V24.74H66.0188ZM100.823 24.74C101.652 24.74 102.323 24.0684 102.323 23.24V11.6C102.323 10.7716 101.652 10.1 100.823 10.1H96.7234V8.8C96.7234 7.97157 96.0519 7.3 95.2234 7.3H70.0234C69.195 7.3 68.5234 7.97157 68.5234 8.8V36.8C68.5234 37.6284 69.195 38.3 70.0234 38.3H81.2234C82.0519 38.3 82.7234 37.6284 82.7234 36.8V29.9H85.3234V36.8C85.3234 37.6284 85.995 38.3 86.8234 38.3H100.823C101.652 38.3 102.323 37.6284 102.323 36.8V28.4C102.323 27.5716 101.652 26.9 100.823 26.9H96.7234V24.74H100.823ZM131.528 8.8C131.528 7.97157 130.857 7.3 130.028 7.3H110.428C109.6 7.3 108.928 7.97157 108.928 8.8V10.1H104.828C104 10.1 103.328 10.7716 103.328 11.6V34C103.328 34.8284 104 35.5 104.828 35.5H108.928V36.8C108.928 37.6284 109.6 38.3 110.428 38.3H130.028C130.857 38.3 131.528 37.6284 131.528 36.8V35.5H135.628C136.457 35.5 137.128 34.8284 137.128 34V11.6C137.128 10.7716 136.457 10.1 135.628 10.1H131.528V8.8ZM170.433 24.74C171.261 24.74 171.933 24.0684 171.933 23.24V11.6C171.933 10.7716 171.261 10.1 170.433 10.1H166.333V8.8C166.333 7.97157 165.661 7.3 164.833 7.3H139.633C138.804 7.3 138.133 7.97157 138.133 8.8V36.8C138.133 37.6284 138.804 38.3 139.633 38.3H150.833C151.661 38.3 152.333 37.6284 152.333 36.8V29.9H154.933V36.8C154.933 37.6284 155.604 38.3 156.433 38.3H170.433C171.261 38.3 171.933 37.6284 171.933 36.8V28.4C171.933 27.5716 171.261 26.9 170.433 26.9H166.333V24.74H170.433ZM185.738 27C185.738 26.3618 185.339 25.8167 184.777 25.6C185.339 25.3833 185.738 24.8382 185.738 24.2V6C185.738 5.17157 185.066 4.5 184.238 4.5H174.438C173.609 4.5 172.938 5.17157 172.938 6V24.2C172.938 24.8382 173.336 25.3833 173.898 25.6C173.336 25.8167 172.938 26.3618 172.938 27V36.8C172.938 37.6284 173.609 38.3 174.438 38.3H184.238C185.066 38.3 185.738 37.6284 185.738 36.8V27ZM53.3188 19.9H47.9188V17.3H53.3188V19.9ZM88.1234 19.9H82.7234V17.3H88.1234V19.9ZM122.928 26.9H117.528V18.7H122.928V26.9ZM157.733 19.9H152.333V17.3H157.733V19.9Z" fill="#FF483E" stroke="#1D1A28" stroke-width="3" stroke-linecap="round" stroke-linejoin="round"/>
</svg>
