<svg width="260" height="490" viewBox="0 0 260 490" fill="none" xmlns="http://www.w3.org/2000/svg">
<rect y="0.709006" width="114.441" height="251.194" rx="57.2206" transform="matrix(0.705203 0.709006 -0.705203 0.709006 178.348 0.206317)" fill="#221E2F" stroke="#615D71"/>
<rect y="0.709006" width="102.009" height="102.009" rx="51.0045" transform="matrix(0.705203 0.709006 -0.705203 0.709006 171.843 14.5394)" stroke="white"/>
<rect y="0.709006" width="102.009" height="102.009" rx="51.0045" transform="matrix(0.705203 0.709006 -0.705203 0.709006 176.302 11.2199)" fill="#FBEC5B" stroke="white"/>
<path d="M163.151 81.336V80.292H151.451V93H152.693V86.952H162.053V85.854H152.693V81.336H163.151ZM174.883 93V92.082C174.451 92.1 173.785 92.136 173.551 91.65C173.425 91.398 173.425 91.056 173.425 90.804V86.97C173.425 86.25 173.353 85.602 172.831 85.008C172.183 84.288 170.779 83.856 168.601 83.856C168.331 83.856 166.567 83.838 165.361 84.486C164.137 85.134 163.867 86.232 163.741 86.7L165.001 86.772C165.127 86.394 165.235 86.07 165.505 85.782C165.667 85.602 165.865 85.44 166.045 85.35C166.549 85.08 167.359 84.936 168.655 84.936C170.311 84.936 171.571 85.206 172.021 85.818C172.309 86.232 172.327 86.7 172.327 87.168C168.727 87.204 166.027 87.258 164.749 88.14C164.047 88.644 163.633 89.472 163.633 90.336C163.633 90.642 163.669 91.398 164.227 92.064C165.055 93.09 166.369 93.234 167.611 93.234C169.465 93.234 170.725 92.694 171.355 92.352C171.679 92.172 172.039 91.92 172.327 91.704C172.363 91.848 172.417 92.622 173.047 92.928C173.191 93 173.425 93.072 173.803 93.072C174.181 93.072 174.523 93.036 174.883 93ZM172.327 88.176C172.345 88.86 172.363 89.778 172.003 90.408C171.697 90.966 171.175 91.254 170.977 91.362C169.663 92.1 168.259 92.172 167.755 92.172C167.647 92.172 166.135 92.172 165.379 91.488C164.965 91.092 164.911 90.552 164.911 90.372C164.911 89.922 165.091 89.616 165.181 89.472C165.577 88.914 166.207 88.608 167.521 88.41C168.637 88.248 169.933 88.194 172.327 88.176ZM181.812 83.838C181.308 83.82 179.472 83.676 178.05 84.81C177.672 85.098 177.474 85.404 177.366 85.548V84.108H176.178V93H177.366V88.032C177.366 87.942 177.402 87.492 177.492 87.168C177.546 87.006 177.726 86.448 178.104 86.034C178.5 85.62 179.436 85.008 180.876 85.008C181.182 85.008 181.488 85.044 181.794 85.08L181.812 83.838ZM201.711 93V87.744C201.711 87.24 201.693 86.844 201.513 86.376C201.153 85.422 200.415 84.9 200.127 84.72C198.903 83.928 197.319 83.892 196.941 83.892C195.087 83.892 193.989 84.468 193.359 84.918C192.891 85.26 192.747 85.44 192.567 85.692C192.477 85.548 192.243 85.224 191.865 84.918C190.605 83.91 188.841 83.856 188.427 83.856C188.013 83.856 186.375 83.874 185.133 84.756C184.917 84.9 184.719 85.08 184.521 85.242V84.108H183.315V93H184.521V87.798C184.521 87.078 184.593 86.862 184.791 86.52C185.457 85.368 187.131 85.008 188.319 85.008C189.579 85.008 191.145 85.314 191.703 86.664C191.847 87.042 191.937 87.33 191.937 88.086V93H193.125V87.708C193.125 87.258 193.179 86.88 193.431 86.466C194.277 85.008 196.617 85.008 196.833 85.008C197.103 85.008 199.497 84.99 200.271 86.646C200.541 87.222 200.541 87.834 200.541 88.032V93H201.711Z" fill="#1D1A28"/>
<rect y="0.709006" width="102.009" height="102.009" rx="51.0045" transform="matrix(0.705203 0.709006 -0.705203 0.709006 85.6009 103.206)" stroke="#615D71"/>
<path d="M71.8215 181.206C71.8215 179.946 71.0655 178.992 69.9315 178.506C68.8155 178.02 67.0515 177.84 64.2795 177.444C63.0735 177.282 62.4615 177.192 61.9215 176.94C61.6695 176.814 60.9315 176.472 60.9315 175.572C60.9315 175.14 61.0935 174.798 61.1655 174.672C61.3815 174.294 61.7415 173.988 62.1015 173.772C63.3615 173.034 65.0355 173.034 65.3955 173.034C66.9975 173.034 68.7435 173.394 69.9135 174.582C70.0395 174.726 70.1835 174.906 70.2915 175.05L71.4435 174.438C71.2995 174.258 71.0295 173.934 70.5795 173.556C68.6715 171.99 66.2595 171.936 65.4855 171.936C64.2075 171.936 62.5875 172.17 61.4535 172.8C60.4275 173.376 59.6355 174.402 59.6355 175.626C59.6355 177.102 60.7155 177.768 61.1475 177.984C61.8855 178.362 62.8935 178.488 63.7035 178.614C64.4595 178.722 65.2335 178.812 66.0075 178.92C66.9435 179.046 69.1035 179.28 69.9135 179.946C70.1295 180.126 70.5075 180.54 70.5075 181.278C70.5075 182.214 69.9315 182.898 69.1575 183.366C67.7535 184.194 66.0075 184.194 65.5215 184.194C63.5055 184.194 62.2275 183.744 61.4895 183.258C60.4995 182.592 60.1395 181.71 59.9775 181.296L58.6455 181.8C58.9695 182.394 59.2395 182.916 59.7255 183.42C61.3095 185.112 63.9735 185.238 64.5135 185.274C64.8915 185.292 65.2515 185.31 65.6115 185.31C68.7255 185.31 70.4355 184.248 71.2275 183.096C71.7495 182.322 71.8215 181.566 71.8215 181.206ZM78.2389 185.058V184.086C77.9869 184.104 77.7169 184.14 77.4469 184.14C76.8169 184.14 76.4389 183.96 76.2409 183.78C75.7549 183.294 75.7189 182.574 75.7189 181.242V177.012H78.2389V176.094H75.7189V172.494L74.5309 173.052V176.094H72.8389V177.012H74.5309V181.458C74.5309 182.88 74.5669 183.636 74.9449 184.23C75.4129 184.986 76.2229 185.184 77.0509 185.184C77.5369 185.184 77.7709 185.13 78.2389 185.058ZM90.3075 184.986V184.068C89.8755 184.086 89.2095 184.122 88.9755 183.636C88.8495 183.384 88.8495 183.042 88.8495 182.79V178.956C88.8495 178.236 88.7775 177.588 88.2555 176.994C87.6075 176.274 86.2035 175.842 84.0255 175.842C83.7555 175.842 81.9915 175.824 80.7855 176.472C79.5615 177.12 79.2915 178.218 79.1655 178.686L80.4255 178.758C80.5515 178.38 80.6595 178.056 80.9295 177.768C81.0915 177.588 81.2895 177.426 81.4695 177.336C81.9735 177.066 82.7835 176.922 84.0795 176.922C85.7355 176.922 86.9955 177.192 87.4455 177.804C87.7335 178.218 87.7515 178.686 87.7515 179.154C84.1515 179.19 81.4515 179.244 80.1735 180.126C79.4715 180.63 79.0575 181.458 79.0575 182.322C79.0575 182.628 79.0935 183.384 79.6515 184.05C80.4795 185.076 81.7935 185.22 83.0355 185.22C84.8895 185.22 86.1495 184.68 86.7795 184.338C87.1035 184.158 87.4635 183.906 87.7515 183.69C87.7875 183.834 87.8415 184.608 88.4715 184.914C88.6155 184.986 88.8495 185.058 89.2275 185.058C89.6055 185.058 89.9475 185.022 90.3075 184.986ZM87.7515 180.162C87.7695 180.846 87.7875 181.764 87.4275 182.394C87.1215 182.952 86.5995 183.24 86.4015 183.348C85.0875 184.086 83.6835 184.158 83.1795 184.158C83.0715 184.158 81.5595 184.158 80.8035 183.474C80.3895 183.078 80.3355 182.538 80.3355 182.358C80.3355 181.908 80.5155 181.602 80.6055 181.458C81.0015 180.9 81.6315 180.594 82.9455 180.396C84.0615 180.234 85.3575 180.18 87.7515 180.162ZM102.403 184.986L96.7513 179.532L101.251 176.094H99.4513L92.7913 181.152V172.278H91.6213V184.986H92.7913V182.556L95.7613 180.27L100.639 184.986H102.403ZM112.809 182.556L111.873 181.89C111.693 182.178 111.621 182.286 111.513 182.43C110.271 184.032 108.579 184.176 107.841 184.176C105.681 184.176 103.773 182.97 103.611 180.666H112.809C112.719 179.676 112.611 179.244 112.395 178.758C112.089 178.056 111.657 177.588 111.441 177.372C110.019 175.914 108.111 175.806 107.445 175.806C105.573 175.806 104.313 176.598 103.791 177.066C102.855 177.876 102.369 179.118 102.369 180.342C102.369 181.962 103.161 183.42 104.475 184.284C105.771 185.148 107.175 185.22 107.715 185.22C109.353 185.22 110.505 184.644 111.027 184.32C111.999 183.69 112.557 182.898 112.809 182.556ZM111.369 179.658H103.647C103.737 179.19 103.827 179.01 103.935 178.776C104.043 178.578 104.277 178.164 104.727 177.75C105.483 177.048 106.347 176.814 107.355 176.814C108.651 176.814 109.389 177.192 109.857 177.48C110.667 178.002 111.171 178.704 111.369 179.658Z" fill="#B6B2CC"/>
<rect y="0.709006" width="114.441" height="251.194" rx="57.2206" transform="matrix(0.705203 0.709006 -0.705203 0.709006 178.348 229.206)" fill="#221E2F" stroke="#615D71"/>
<rect y="0.709006" width="102.009" height="102.009" rx="51.0045" transform="matrix(0.705203 0.709006 -0.705203 0.709006 176.302 239.22)" stroke="#615D71"/>
<path d="M169.687 321V319.938H158.239V314.88H168.337V313.8H158.239V309.336H169.165V308.292H156.997V321H169.687ZM182.845 309.336V308.292H170.479V309.336H176.185V321H177.391V309.336H182.845ZM197.182 311.766C197.182 310.686 196.75 309.966 196.516 309.66C196.444 309.552 196.21 309.282 195.922 309.048C194.986 308.346 193.924 308.292 192.808 308.292H184.366V321H185.626V315.312H192.52C193.672 315.312 194.914 315.24 195.886 314.484C197.092 313.566 197.182 312.27 197.182 311.766ZM195.868 311.766C195.868 312.684 195.472 313.206 195.184 313.476C194.356 314.268 193.132 314.268 192.088 314.268H185.626V309.336H192.934C193.636 309.336 194.356 309.39 194.95 309.804C195.796 310.398 195.868 311.496 195.868 311.766Z" fill="#B6B2CC"/>
<rect y="0.709006" width="102.009" height="102.009" rx="51.0045" transform="matrix(0.705203 0.709006 -0.705203 0.709006 85.6009 332.206)" stroke="#615D71"/>
<path d="M77.8171 401.278H76.4671L71.3731 412.654L66.1171 401.278H64.7491L70.7431 413.986H71.9311L77.8171 401.278ZM88.4082 409.612C88.4082 408.946 88.2282 407.218 86.7522 406.012C85.3662 404.878 83.5842 404.824 83.0442 404.806C81.5322 404.788 80.3442 405.184 79.8402 405.436C79.3542 405.67 78.0762 406.408 77.5182 407.92C77.2662 408.622 77.2302 409.288 77.2302 409.54C77.2302 410.008 77.3022 411.052 78.0042 412.078C79.0842 413.644 80.7942 414.004 81.3882 414.112C82.0362 414.238 82.5402 414.238 82.7922 414.238C85.5462 414.238 87.0402 412.924 87.6702 412.024C88.3362 411.034 88.4082 410.062 88.4082 409.612ZM87.0762 409.54C87.0762 409.954 87.0222 410.98 86.2482 411.88C85.0782 413.212 83.3142 413.23 82.7742 413.23C81.5322 413.23 80.0922 412.834 79.3002 411.79C78.6342 410.944 78.5802 409.9 78.5802 409.558C78.5802 407.812 79.5882 406.894 80.1282 406.534C81.1362 405.868 82.3782 405.778 82.7382 405.778C83.3142 405.76 85.7442 405.85 86.7342 407.938C86.9682 408.424 87.0762 408.982 87.0762 409.54ZM94.7623 414.058V413.086C94.5103 413.104 94.2403 413.14 93.9703 413.14C93.3403 413.14 92.9623 412.96 92.7643 412.78C92.2783 412.294 92.2423 411.574 92.2423 410.242V406.012H94.7623V405.094H92.2423V401.494L91.0543 402.052V405.094H89.3623V406.012H91.0543V410.458C91.0543 411.88 91.0903 412.636 91.4683 413.23C91.9363 413.986 92.7463 414.184 93.5743 414.184C94.0603 414.184 94.2943 414.13 94.7623 414.058ZM106.129 411.556L105.193 410.89C105.013 411.178 104.941 411.286 104.833 411.43C103.591 413.032 101.899 413.176 101.161 413.176C99.0009 413.176 97.0929 411.97 96.9309 409.666H106.129C106.039 408.676 105.931 408.244 105.715 407.758C105.409 407.056 104.977 406.588 104.761 406.372C103.339 404.914 101.431 404.806 100.765 404.806C98.8929 404.806 97.6329 405.598 97.1109 406.066C96.1749 406.876 95.6889 408.118 95.6889 409.342C95.6889 410.962 96.4809 412.42 97.7949 413.284C99.0909 414.148 100.495 414.22 101.035 414.22C102.673 414.22 103.825 413.644 104.347 413.32C105.319 412.69 105.877 411.898 106.129 411.556ZM104.689 408.658H96.9669C97.0569 408.19 97.1469 408.01 97.2549 407.776C97.3629 407.578 97.5969 407.164 98.0469 406.75C98.8029 406.048 99.6669 405.814 100.675 405.814C101.971 405.814 102.709 406.192 103.177 406.48C103.987 407.002 104.491 407.704 104.689 408.658Z" fill="#B6B2CC"/>
<mask id="path-12-outside-1" maskUnits="userSpaceOnUse" x="39" y="205" width="183" height="82" fill="black">
<rect fill="white" x="39" y="205" width="183" height="82"/>
<path fill-rule="evenodd" clip-rule="evenodd" d="M77.5288 236.975H82.5102V239.408H99.9452V236.975H104.927V217.504H99.9452V215.07H82.5102V217.504H77.5288V236.975ZM87.4916 232.107H94.9637V222.372H87.4916V232.107ZM54.0518 215.07V217.504H49.0704V236.975H54.0518V239.408H73.9775V232.107H61.524V222.372H73.9775V215.07H54.0518ZM47.1073 241.031H44V212.434H48.9814V210H121.263V214.868H125.604V210H211.413V212.434H216.394V282H159.874H159.356H127.464V278.866H120.732V282H88.8394V278.866H85.2141V282H47.1073V278.866H44V244.663H47.1073V241.031ZM87.6952 248.72V273.795H93.9098V276.93H115.661V273.795H121.876V248.72H115.661V245.585H93.9098V248.72H87.6952ZM126.32 248.72V273.795H132.535V276.93H154.286V273.795H160.501V248.72H154.286V245.585H132.535V248.72H126.32ZM164.945 245.585V276.93H177.374V264.392H180.481V270.661H183.589V276.93H196.018V245.585H183.589V258.123H180.481V251.854H177.374V245.585H164.945ZM200.448 245.493V262.825H211.324V245.493H200.448ZM200.448 265.959V276.93H211.324V265.959H200.448ZM188.908 236.975V239.408H206.342V236.975H211.324V227.239H199.867V229.673H202.357V232.107H194.885V222.372H202.357V224.806H211.324V217.504H206.342V215.07H188.908V217.504H183.926V236.975H188.908ZM180.375 239.408V215.07H170.412V224.806H167.921V219.938H165.431V215.07H155.468V239.408H165.431V229.673H167.921V234.541H170.412V239.408H180.375ZM138.377 239.408V215.07H129.66V219.938H125.924V224.806H120.942V219.938H117.206V215.07H108.489V239.408H115.961V234.541H118.452V236.975H120.942V239.408H125.924V236.975H128.415V234.541H130.905V239.408H138.377ZM83.251 254.988V248.72H80.1436V245.585H52.1777V248.72H49.0704V261.257H52.1777V264.392H64.607V270.661H58.3924V267.526H49.0704V273.795H52.1777V276.93H80.1436V273.795H83.251V261.436H77.1695V258.123H64.607V251.854H70.8217V254.988H83.251ZM141.951 215.07V239.408H151.914V215.07H141.951ZM109.446 267.526H100.124V254.988H109.446V267.526ZM148.071 267.526V254.988H138.749V267.526H148.071Z"/>
</mask>
<path fill-rule="evenodd" clip-rule="evenodd" d="M77.5288 236.975H82.5102V239.408H99.9452V236.975H104.927V217.504H99.9452V215.07H82.5102V217.504H77.5288V236.975ZM87.4916 232.107H94.9637V222.372H87.4916V232.107ZM54.0518 215.07V217.504H49.0704V236.975H54.0518V239.408H73.9775V232.107H61.524V222.372H73.9775V215.07H54.0518ZM47.1073 241.031H44V212.434H48.9814V210H121.263V214.868H125.604V210H211.413V212.434H216.394V282H159.874H159.356H127.464V278.866H120.732V282H88.8394V278.866H85.2141V282H47.1073V278.866H44V244.663H47.1073V241.031ZM87.6952 248.72V273.795H93.9098V276.93H115.661V273.795H121.876V248.72H115.661V245.585H93.9098V248.72H87.6952ZM126.32 248.72V273.795H132.535V276.93H154.286V273.795H160.501V248.72H154.286V245.585H132.535V248.72H126.32ZM164.945 245.585V276.93H177.374V264.392H180.481V270.661H183.589V276.93H196.018V245.585H183.589V258.123H180.481V251.854H177.374V245.585H164.945ZM200.448 245.493V262.825H211.324V245.493H200.448ZM200.448 265.959V276.93H211.324V265.959H200.448ZM188.908 236.975V239.408H206.342V236.975H211.324V227.239H199.867V229.673H202.357V232.107H194.885V222.372H202.357V224.806H211.324V217.504H206.342V215.07H188.908V217.504H183.926V236.975H188.908ZM180.375 239.408V215.07H170.412V224.806H167.921V219.938H165.431V215.07H155.468V239.408H165.431V229.673H167.921V234.541H170.412V239.408H180.375ZM138.377 239.408V215.07H129.66V219.938H125.924V224.806H120.942V219.938H117.206V215.07H108.489V239.408H115.961V234.541H118.452V236.975H120.942V239.408H125.924V236.975H128.415V234.541H130.905V239.408H138.377ZM83.251 254.988V248.72H80.1436V245.585H52.1777V248.72H49.0704V261.257H52.1777V264.392H64.607V270.661H58.3924V267.526H49.0704V273.795H52.1777V276.93H80.1436V273.795H83.251V261.436H77.1695V258.123H64.607V251.854H70.8217V254.988H83.251ZM141.951 215.07V239.408H151.914V215.07H141.951ZM109.446 267.526H100.124V254.988H109.446V267.526ZM148.071 267.526V254.988H138.749V267.526H148.071Z" fill="white"/>
<path fill-rule="evenodd" clip-rule="evenodd" d="M77.5288 236.975H82.5102V239.408H99.9452V236.975H104.927V217.504H99.9452V215.07H82.5102V217.504H77.5288V236.975ZM87.4916 232.107H94.9637V222.372H87.4916V232.107ZM54.0518 215.07V217.504H49.0704V236.975H54.0518V239.408H73.9775V232.107H61.524V222.372H73.9775V215.07H54.0518ZM47.1073 241.031H44V212.434H48.9814V210H121.263V214.868H125.604V210H211.413V212.434H216.394V282H159.874H159.356H127.464V278.866H120.732V282H88.8394V278.866H85.2141V282H47.1073V278.866H44V244.663H47.1073V241.031ZM87.6952 248.72V273.795H93.9098V276.93H115.661V273.795H121.876V248.72H115.661V245.585H93.9098V248.72H87.6952ZM126.32 248.72V273.795H132.535V276.93H154.286V273.795H160.501V248.72H154.286V245.585H132.535V248.72H126.32ZM164.945 245.585V276.93H177.374V264.392H180.481V270.661H183.589V276.93H196.018V245.585H183.589V258.123H180.481V251.854H177.374V245.585H164.945ZM200.448 245.493V262.825H211.324V245.493H200.448ZM200.448 265.959V276.93H211.324V265.959H200.448ZM188.908 236.975V239.408H206.342V236.975H211.324V227.239H199.867V229.673H202.357V232.107H194.885V222.372H202.357V224.806H211.324V217.504H206.342V215.07H188.908V217.504H183.926V236.975H188.908ZM180.375 239.408V215.07H170.412V224.806H167.921V219.938H165.431V215.07H155.468V239.408H165.431V229.673H167.921V234.541H170.412V239.408H180.375ZM138.377 239.408V215.07H129.66V219.938H125.924V224.806H120.942V219.938H117.206V215.07H108.489V239.408H115.961V234.541H118.452V236.975H120.942V239.408H125.924V236.975H128.415V234.541H130.905V239.408H138.377ZM83.251 254.988V248.72H80.1436V245.585H52.1777V248.72H49.0704V261.257H52.1777V264.392H64.607V270.661H58.3924V267.526H49.0704V273.795H52.1777V276.93H80.1436V273.795H83.251V261.436H77.1695V258.123H64.607V251.854H70.8217V254.988H83.251ZM141.951 215.07V239.408H151.914V215.07H141.951ZM109.446 267.526H100.124V254.988H109.446V267.526ZM148.071 267.526V254.988H138.749V267.526H148.071Z" stroke="white" stroke-width="10" stroke-linecap="round" stroke-linejoin="round" mask="url(#path-12-outside-1)"/>
<path d="M73.9775 224.872C74.353 224.872 74.7091 224.789 75.0287 224.641V229.838C74.7091 229.69 74.353 229.607 73.9775 229.607H64.0239V224.872H73.9775ZM76.4775 215.235V215.07C76.4775 213.69 75.3582 212.57 73.9775 212.57H54.0518C52.6932 212.57 51.5878 213.654 51.5527 215.004H49.0704C47.6897 215.004 46.5704 216.124 46.5704 217.504V236.975C46.5704 238.355 47.6897 239.475 49.0704 239.475H51.5527C51.5878 240.825 52.6932 241.908 54.0518 241.908H73.9775C75.3582 241.908 76.4775 240.789 76.4775 239.408V239.244C76.7971 239.392 77.1532 239.475 77.5287 239.475H80.011C80.0461 240.825 81.1516 241.908 82.5101 241.908H99.9451C101.304 241.908 102.409 240.825 102.444 239.475H104.927C105.306 239.475 105.666 239.39 105.989 239.238V239.408C105.989 240.789 107.108 241.908 108.489 241.908H115.961C117.269 241.908 118.342 240.905 118.452 239.625C118.562 240.905 119.635 241.908 120.942 241.908H125.924C127.231 241.908 128.305 240.905 128.415 239.625C128.525 240.905 129.598 241.908 130.905 241.908H138.377C139.077 241.908 139.71 241.621 140.164 241.157C140.618 241.621 141.251 241.908 141.951 241.908H151.914C152.609 241.908 153.238 241.625 153.691 241.167C154.144 241.625 154.773 241.908 155.468 241.908H165.431C166.738 241.908 167.811 240.905 167.921 239.625C168.031 240.905 169.104 241.908 170.412 241.908H180.375C181.756 241.908 182.875 240.789 182.875 239.408V239.244C183.194 239.392 183.551 239.475 183.926 239.475H186.408C186.443 240.825 187.549 241.908 188.907 241.908H206.342C207.701 241.908 208.807 240.825 208.842 239.475H211.324C212.705 239.475 213.824 238.355 213.824 236.975V227.239C213.824 226.798 213.709 226.383 213.508 226.023C213.709 225.662 213.824 225.247 213.824 224.806V217.504C213.824 216.124 212.705 215.004 211.324 215.004H208.842C208.807 213.654 207.701 212.57 206.342 212.57H188.907C187.549 212.57 186.443 213.654 186.408 215.004H183.926C183.551 215.004 183.194 215.087 182.875 215.235V215.07C182.875 213.69 181.756 212.57 180.375 212.57H170.412C169.104 212.57 168.031 213.574 167.921 214.853C167.811 213.574 166.738 212.57 165.431 212.57H155.468C154.773 212.57 154.144 212.854 153.691 213.312C153.238 212.854 152.609 212.57 151.914 212.57H141.951C141.251 212.57 140.618 212.858 140.164 213.322C139.71 212.858 139.077 212.57 138.377 212.57H129.66C128.279 212.57 127.16 213.69 127.16 215.07V217.438H125.924C124.616 217.438 123.543 218.442 123.433 219.721C123.323 218.442 122.25 217.438 120.942 217.438H119.706V215.07C119.706 213.69 118.587 212.57 117.206 212.57H108.489C107.108 212.57 105.989 213.69 105.989 215.07V215.241C105.666 215.089 105.306 215.004 104.927 215.004H102.444C102.409 213.654 101.304 212.57 99.9451 212.57H82.5101C81.1516 212.57 80.0461 213.654 80.011 215.004H77.5287C77.1532 215.004 76.7971 215.087 76.4775 215.235ZM199.062 224.872C198.169 225.175 197.503 225.969 197.385 226.933V224.872H199.062ZM92.4637 229.607H89.9916V224.872H92.4637V229.607Z" fill="#00D7E7" stroke="#1D1A28" stroke-width="5" stroke-linecap="round" stroke-linejoin="round"/>
<path d="M83.2509 257.489C84.0361 257.489 84.7368 257.127 85.1951 256.56V259.865C84.7368 259.299 84.0361 258.937 83.2509 258.937H79.6694V258.123C79.6694 257.904 79.6412 257.691 79.5882 257.489H83.2509ZM85.473 247.573C85.0574 246.769 84.2183 246.22 83.2509 246.22H82.6436V245.585C82.6436 244.205 81.5243 243.085 80.1436 243.085H52.1777C50.797 243.085 49.6777 244.205 49.6777 245.585V246.22H49.0704C47.6897 246.22 46.5704 247.339 46.5704 248.72V261.257C46.5704 262.638 47.6897 263.757 49.0704 263.757H49.6777V264.392C49.6777 264.611 49.7059 264.824 49.7589 265.026H49.0704C47.6897 265.026 46.5704 266.146 46.5704 267.526V273.795C46.5704 275.176 47.6897 276.295 49.0704 276.295H49.6777V276.93C49.6777 278.31 50.797 279.43 52.1777 279.43H80.1436C81.5243 279.43 82.6436 278.31 82.6436 276.93V276.295H83.2509C84.2183 276.295 85.0574 275.746 85.473 274.942C85.8887 275.746 86.7278 276.295 87.6951 276.295H91.4098V276.93C91.4098 278.31 92.5291 279.43 93.9098 279.43H115.661C117.042 279.43 118.161 278.31 118.161 276.93V276.295H121.876C122.843 276.295 123.682 275.746 124.098 274.942C124.513 275.746 125.353 276.295 126.32 276.295H130.035V276.93C130.035 278.31 131.154 279.43 132.535 279.43H154.286C155.667 279.43 156.786 278.31 156.786 276.93V276.295H160.5C161.286 276.295 161.986 275.933 162.445 275.367V276.93C162.445 278.31 163.564 279.43 164.945 279.43H177.374C178.755 279.43 179.874 278.31 179.874 276.93V273.086C180.068 273.135 180.272 273.161 180.481 273.161H181.089V276.93C181.089 278.31 182.208 279.43 183.589 279.43H196.018C196.98 279.43 197.815 278.886 198.233 278.09C198.651 278.886 199.486 279.43 200.448 279.43H211.324C212.705 279.43 213.824 278.31 213.824 276.93V265.959C213.824 265.366 213.617 264.821 213.272 264.392C213.617 263.963 213.824 263.418 213.824 262.825V245.493C213.824 244.112 212.705 242.993 211.324 242.993H200.448C199.467 242.993 198.618 243.558 198.209 244.38C197.783 243.608 196.962 243.085 196.018 243.085H183.589C182.208 243.085 181.089 244.205 181.089 245.585V249.428C180.894 249.38 180.691 249.354 180.481 249.354H179.874V245.585C179.874 244.205 178.755 243.085 177.374 243.085H164.945C163.564 243.085 162.445 244.205 162.445 245.585V247.148C161.986 246.582 161.286 246.22 160.5 246.22H156.786V245.585C156.786 244.205 155.667 243.085 154.286 243.085H132.535C131.154 243.085 130.035 244.205 130.035 245.585V246.22H126.32C125.353 246.22 124.513 246.769 124.098 247.573C123.682 246.769 122.843 246.22 121.876 246.22H118.161V245.585C118.161 244.205 117.042 243.085 115.661 243.085H93.9098C92.5291 243.085 91.4098 244.205 91.4098 245.585V246.22H87.6951C86.7278 246.22 85.8887 246.769 85.473 247.573ZM60.8923 267.526C60.8923 267.307 60.8641 267.094 60.8111 266.892H62.107V268.161H60.8923V267.526ZM68.3216 254.989C68.3216 255.208 68.3498 255.42 68.4028 255.623H67.107V254.354H68.3216V254.989ZM106.946 265.026H102.624V257.489H106.946V265.026ZM145.571 265.026H141.249V257.489H145.571V265.026Z" fill="#FF483E" stroke="#1D1A28" stroke-width="5" stroke-linecap="round" stroke-linejoin="round"/>
</svg>
